<?xml version="1.0" standalone="no"?>
<!DOCTYPE svg PUBLIC "-//W3C//DTD SVG 20010904//EN"
 "http://www.w3.org/TR/2001/REC-SVG-20010904/DTD/svg10.dtd">
<svg version="1.0" xmlns="http://www.w3.org/2000/svg"
 width="500.000000pt" height="500.000000pt" viewBox="0 0 500.000000 500.000000"
 preserveAspectRatio="xMidYMid meet">
<metadata>
Created by potrace 1.14, written by Peter Selinger 2001-2017
</metadata>
<g transform="translate(0.000000,500.000000) scale(0.100000,-0.100000)"
fill="#000000" stroke="none">
<path d="M2936 4650 c-161 -55 -325 -163 -428 -282 -57 -65 -168 -228 -168
-246 0 -24 -22 -21 -57 7 -65 52 -191 109 -289 132 -78 18 -114 21 -216 16
-274 -11 -497 -120 -640 -315 -58 -78 -111 -196 -116 -257 -4 -51 -3 -55 39
-100 118 -129 324 -230 510 -251 32 -4 59 -9 59 -11 0 -3 -14 -22 -30 -43 -43
-55 -113 -184 -138 -255 -71 -208 -85 -400 -43 -585 48 -210 173 -428 324
-566 88 -79 226 -168 294 -188 32 -10 64 -20 72 -22 10 -3 12 -15 7 -42 -3
-20 -6 -71 -6 -113 l0 -76 -47 -6 c-27 -3 -111 -25 -188 -47 -77 -23 -164 -46
-194 -51 -54 -10 -103 -30 -132 -55 -11 -10 -24 -11 -45 -5 -16 4 -34 6 -40 4
-6 -2 -16 13 -22 34 -16 50 -74 110 -136 139 -68 32 -167 32 -256 2 -52 -17
-76 -33 -135 -92 -124 -123 -179 -281 -156 -450 6 -49 9 -91 6 -94 -3 -3 -5 2
-5 11 0 19 -38 33 -52 19 -12 -12 -13 -39 -3 -74 6 -22 4 -28 -9 -28 -18 0
-33 47 -51 165 l-13 80 -1 -73 c-4 -258 139 -499 356 -605 169 -82 318 -85
512 -7 53 21 123 43 156 50 105 21 336 79 460 115 66 19 226 63 355 96 472
124 566 150 650 178 47 16 137 42 200 56 63 15 146 36 185 47 l70 20 20 -28
c41 -59 110 -117 174 -148 62 -29 73 -31 176 -31 119 0 136 6 237 74 91 61
179 186 207 291 11 38 13 41 -45 -51 -18 -27 -57 -72 -88 -99 -51 -45 -60 -49
-79 -38 -19 10 -20 9 -9 -4 11 -14 9 -18 -17 -31 -17 -9 -34 -11 -42 -6 -10 6
-11 9 -1 9 6 0 12 5 12 11 0 6 -7 9 -15 5 -8 -3 -15 -1 -15 4 0 14 34 12 48
-2 9 -9 12 -9 12 0 0 6 -11 14 -25 18 -35 9 -31 22 6 20 35 -1 52 29 18 31
-12 1 -17 -3 -13 -9 4 -6 1 -9 -7 -6 -8 3 -36 -4 -64 -14 -27 -10 -59 -18 -70
-17 -11 0 6 9 37 19 127 40 182 90 250 226 l43 88 -2 324 -1 325 -29 41 c-40
57 -94 86 -164 86 -66 0 -152 -14 -234 -40 -105 -32 -258 -77 -340 -100 -44
-12 -96 -32 -115 -44 -26 -15 -47 -20 -82 -18 -31 3 -61 -3 -92 -17 l-46 -20
-43 43 c-24 24 -64 51 -89 60 l-46 18 81 81 c178 181 283 400 309 647 25 241
-42 494 -186 699 -161 228 -415 388 -663 418 -29 3 -53 11 -53 17 0 35 66 219
105 295 59 114 162 221 263 274 l69 37 19 -21 c51 -56 160 -76 231 -43 105 51
163 187 117 277 -52 99 -117 140 -234 145 -63 2 -90 -2 -164 -28z m233 -86
c24 -10 45 -27 56 -48 56 -103 -62 -230 -140 -151 -31 30 -31 39 -2 53 42 20
-88 14 -150 -8 -248 -87 -462 -390 -508 -720 -21 -155 -19 -387 5 -525 18
-104 18 -111 2 -123 -29 -22 -74 -11 -92 23 -8 17 -18 33 -23 36 -25 18 -42
312 -28 484 35 416 232 742 554 916 142 75 245 96 326 63z m-1169 -405 c104
-28 270 -122 270 -153 0 -8 -54 -11 -183 -11 -178 -1 -185 -2 -317 -38 -155
-42 -301 -97 -433 -163 -123 -61 -127 -66 -87 -94 l32 -23 81 33 c298 118 435
158 612 181 79 9 99 9 105 -1 6 -10 25 -11 72 -7 88 8 98 0 71 -55 -49 -101
-120 -169 -243 -233 -30 -16 -91 -50 -135 -76 -44 -26 -102 -53 -128 -60 -144
-36 -409 59 -563 201 l-46 42 28 65 c58 138 187 273 325 341 74 36 158 61 254
76 59 9 212 -4 285 -25z m674 -584 c268 -78 467 -255 578 -516 83 -194 101
-445 44 -629 -12 -42 -14 -28 -15 177 -1 236 -6 276 -51 404 -43 121 -84 183
-195 294 -83 84 -115 109 -193 149 -87 44 -252 96 -308 96 -19 0 -24 5 -24 25
0 22 4 25 39 25 21 0 78 -11 125 -25z m-488 -42 c-4 -27 -8 -69 -8 -95 -1 -40
-4 -48 -19 -48 -11 0 -19 -4 -19 -10 0 -5 -10 -20 -22 -32 -14 -14 -21 -32
-20 -56 1 -20 -3 -41 -9 -49 -6 -7 -9 -22 -6 -33 3 -11 2 -18 -2 -16 -4 3 -18
-15 -31 -40 -14 -24 -29 -44 -34 -44 -5 0 -16 -8 -25 -17 -21 -24 -50 -31 -32
-9 17 20 6 55 -11 38 -7 -7 -20 -12 -31 -12 -11 0 -15 -4 -11 -11 4 -7 0 -9
-13 -5 -24 8 -48 -17 -37 -36 6 -10 3 -9 -9 1 -24 19 -21 2 4 -25 33 -35 37
-104 9 -149 -53 -86 -158 -87 -233 -1 -10 12 -16 14 -12 6 4 -9 1 -8 -8 3 -14
17 -16 14 -27 -35 -21 -96 -25 -275 -7 -353 22 -96 59 -193 112 -295 24 -47
43 -96 42 -108 -1 -12 -2 -22 -4 -22 -12 0 -99 134 -132 202 -174 363 -90 813
202 1083 39 37 85 74 102 82 16 8 37 22 46 30 23 20 210 103 233 103 17 0 18
-5 12 -47z m-89 -315 c-3 -8 -6 -5 -6 6 -1 11 2 17 5 13 3 -3 4 -12 1 -19z m0
-96 c1 -36 1 -36 -7 -8 -8 24 -6 46 3 46 1 0 3 -17 4 -38z m-141 -29 c-10 -10
-19 5 -10 18 6 11 8 11 12 0 2 -7 1 -15 -2 -18z m104 -4 c0 -11 -4 -18 -9 -14
-6 3 -9 14 -8 25 2 24 17 15 17 -11z m-166 -16 c-5 -5 -12 -12 -16 -18 -4 -6
-8 -2 -8 8 0 9 7 17 17 17 9 0 12 -3 7 -7z m256 -23 c12 -23 12 -24 -3 -11
-10 7 -17 20 -17 29 0 18 3 16 20 -18z m-53 -2 c-3 -8 -6 -5 -6 6 -1 11 2 17
5 13 3 -3 4 -12 1 -19z m37 -37 c-6 -6 -24 19 -24 34 1 6 7 1 15 -9 8 -11 12
-22 9 -25z m861 5 c28 -13 59 -33 70 -46 l20 -23 -22 12 c-33 17 -53 14 -53
-9 0 -11 -5 -20 -12 -20 -6 0 -3 -10 8 -21 l19 -22 -35 19 c-47 24 -135 24
-175 0 -49 -28 -79 -82 -85 -146 l-5 -56 -32 8 c-17 4 -34 16 -36 26 -3 9 -3
-12 -1 -48 l4 -65 -17 35 c-25 53 -29 148 -8 210 20 60 79 123 140 151 60 27
158 25 220 -5z m-445 -58 c-1 -43 -71 -72 -154 -63 -67 7 -118 23 -111 35 3 4
25 3 51 -2 55 -12 117 -4 164 22 42 23 50 24 50 8z m-820 -248 c43 -43 6 -130
-55 -130 -58 0 -95 78 -59 128 20 29 85 31 114 2z m623 -36 c80 -34 110 -58
152 -120 37 -57 44 -77 22 -68 -12 4 -35 -12 -87 -61 -11 -9 -20 -11 -30 -5
-25 16 -39 11 -70 -20 -23 -24 -38 -30 -71 -30 -47 0 -117 -18 -139 -35 -21
-17 -98 -35 -102 -24 -2 5 -22 11 -45 14 -23 3 -53 9 -66 14 -24 9 -24 9 -16
-30 5 -21 16 -57 25 -79 13 -31 14 -44 5 -53 -6 -6 -11 -9 -11 -6 0 2 -9 29
-20 59 -11 30 -20 73 -20 95 0 96 58 245 113 291 111 93 230 112 360 58z
m-273 -648 c0 -2 -9 -2 -20 1 -11 3 -20 9 -20 15 0 5 9 4 20 -2 11 -6 20 -12
20 -14z m45 -16 c8 -13 -5 -13 -25 0 -13 8 -13 10 2 10 9 0 20 -4 23 -10z
m255 0 c-8 -5 -24 -9 -35 -9 -16 1 -16 2 5 9 35 11 48 11 30 0z m1833 -242
c13 -224 8 -489 -8 -552 -21 -80 -78 -163 -138 -200 -40 -25 -59 -30 -110 -30
-74 0 -98 12 -137 66 -66 91 -20 234 84 258 50 11 96 -1 119 -32 18 -24 19
-31 8 -54 -12 -27 -19 -28 -88 -8 -28 8 -73 -35 -73 -69 0 -40 43 -77 88 -77
87 0 167 101 179 224 l6 64 -40 -11 c-34 -9 -45 -8 -73 9 -18 10 -42 32 -54
47 -20 27 -21 41 -21 227 1 110 3 201 6 204 3 3 20 9 37 12 l32 7 0 -172 c0
-194 10 -241 53 -241 47 0 52 19 57 234 l5 200 25 7 c14 4 28 7 31 8 3 1 9
-54 12 -121z m-289 26 c10 -27 7 -74 -6 -78 -59 -15 -74 -25 -92 -56 -19 -31
-21 -55 -24 -211 -4 -176 -4 -177 -28 -188 -59 -27 -58 -35 -51 240 3 138 9
255 14 259 20 20 47 15 54 -10 4 -14 7 -20 8 -14 1 7 14 26 30 43 32 35 84 43
95 15z m-855 -87 c46 -31 71 -80 71 -140 0 -57 -14 -94 -47 -129 -15 -15 -25
-29 -22 -31 2 -2 17 -11 32 -21 55 -34 80 -126 56 -207 -26 -87 -99 -137 -231
-162 l-78 -14 0 207 c0 114 -3 255 -6 313 l-7 106 -35 -14 c-54 -23 -82 -20
-82 9 0 34 48 71 117 91 32 9 63 18 68 20 29 13 129 -5 164 -28z m615 17 c9
-9 16 -32 16 -54 0 -38 -1 -39 -42 -42 -31 -2 -46 -10 -62 -31 -19 -26 -21
-44 -24 -212 l-3 -184 -35 -7 c-19 -3 -38 -3 -41 0 -6 6 -5 497 1 503 1 2 17
6 34 9 28 6 32 4 32 -15 0 -20 3 -19 34 13 36 39 65 45 90 20z m-1184 -379 l0
-305 39 -26 c46 -30 62 -71 35 -91 -41 -30 -96 -6 -124 54 -19 41 -21 69 -27
347 l-6 303 29 11 c57 21 54 36 54 -293z m894 285 c44 -26 61 -63 61 -126 0
-49 -3 -56 -44 -98 -29 -29 -62 -51 -94 -62 -45 -15 -48 -18 -42 -43 18 -72
75 -80 142 -18 29 26 38 17 37 -36 -3 -101 -149 -139 -218 -56 -38 45 -51 102
-51 224 0 106 1 112 30 155 32 47 83 80 124 80 13 0 38 -9 55 -20z m-1066
-167 l3 -62 29 6 c29 5 30 5 30 -36 0 -38 -2 -42 -30 -48 l-30 -6 2 -166 3
-166 36 2 c36 2 37 2 44 -43 3 -25 4 -49 0 -52 -4 -4 -29 -7 -56 -7 -40 0 -54
5 -76 28 l-28 27 -3 175 c-3 166 -4 175 -23 175 -12 0 -23 10 -29 26 -16 40
-12 51 20 58 l30 6 0 75 0 76 38 -3 37 -3 3 -62z m429 6 c41 -25 63 -66 63
-114 0 -80 -70 -152 -183 -189 -14 -4 -17 -12 -12 -28 24 -79 71 -90 136 -31
43 39 59 35 59 -14 0 -89 -124 -144 -208 -93 -55 33 -72 86 -72 221 0 106 2
120 28 170 46 92 118 122 189 78z m-1503 -99 c109 -53 121 -189 23 -251 -77
-48 -187 21 -131 82 13 14 26 17 59 12 36 -4 43 -2 47 14 14 53 -36 89 -105
77 -89 -15 -164 -128 -174 -261 -13 -161 45 -295 150 -350 41 -21 132 -21 172
-1 29 16 32 15 65 -12 34 -28 34 -28 16 -49 -22 -24 -103 -51 -153 -51 -91 0
-171 38 -240 112 -79 87 -108 180 -100 333 8 181 85 301 224 351 54 19 100 17
147 -6z m920 -84 c19 -25 21 -43 24 -237 3 -167 1 -210 -10 -213 -7 -2 -25 -7
-40 -10 l-28 -6 0 190 c0 113 -4 199 -10 211 -13 24 -41 24 -71 0 -22 -18 -23
-24 -26 -222 -2 -112 -7 -207 -11 -211 -4 -4 -22 -11 -40 -14 l-32 -6 1 243
c1 134 4 255 8 269 8 31 61 43 61 14 0 -13 5 -12 26 9 14 14 35 27 47 29 33 6
78 -15 101 -46z m-284 -128 c0 -68 -3 -187 -7 -265 l-6 -141 -31 -5 c-17 -3
-50 -11 -73 -18 -37 -11 -47 -11 -77 4 -67 31 -71 47 -74 279 -2 127 0 208 6
208 5 0 24 3 41 6 l31 7 0 -192 c0 -178 1 -192 20 -211 15 -15 25 -18 39 -11
43 24 46 36 49 242 l3 198 27 10 c52 19 52 19 52 -111z m-349 -38 c46 -48 52
-76 47 -207 -2 -82 -7 -106 -29 -148 -61 -116 -169 -128 -228 -25 -23 40 -26
58 -29 165 -3 110 -1 124 20 165 30 59 77 90 136 90 40 0 50 -5 83 -40z m2125
9 c3 -6 0 -15 -7 -20 -8 -5 -9 -9 -4 -9 18 0 46 -89 35 -110 -7 -13 -7 -21 0
-25 6 -3 10 4 10 16 0 20 4 18 35 -17 36 -41 42 -54 24 -54 -5 0 -7 5 -3 12 5
7 2 9 -9 5 -11 -4 -14 -2 -11 7 3 7 -3 17 -13 20 -10 4 -19 3 -21 -3 -6 -18
-32 0 -33 23 0 21 0 21 -9 -1 -12 -28 -24 -30 -17 -3 3 11 1 20 -4 20 -5 0 -9
-12 -9 -26 0 -22 4 -25 21 -21 18 5 20 2 16 -18 -2 -14 -1 -22 3 -20 5 3 10
-1 13 -9 4 -9 0 -13 -11 -12 -19 3 -64 75 -57 93 3 8 -5 8 -28 -2 -45 -18
-107 -29 -87 -16 8 6 26 11 38 11 28 0 25 24 -4 27 -18 3 -18 2 1 -6 19 -9 19
-10 -2 -10 -25 -1 -29 9 -11 27 9 9 8 15 -7 26 -35 25 -7 51 53 49 7 -1 11 2
8 5 -6 5 62 51 76 52 4 0 10 -5 14 -11z m-221 -69 c-3 -5 -12 -10 -18 -10 -7
0 -6 4 3 10 19 12 23 12 15 0z m-205 -29 c0 -6 21 -10 65 -11 26 -1 45 -18 38
-36 -3 -8 -18 -14 -37 -14 l-31 1 30 13 c30 13 30 13 -18 12 -34 0 -46 -4 -43
-13 3 -7 -1 -13 -9 -13 -8 0 -14 -5 -12 -11 1 -6 -4 -14 -10 -16 -7 -3 -13 0
-13 7 0 6 -4 9 -10 5 -5 -3 -21 -3 -35 1 -20 5 -23 9 -14 20 6 8 18 14 26 14
8 0 11 5 8 13 -4 6 1 3 9 -7 9 -11 16 -14 16 -7 0 7 4 10 8 7 12 -7 38 12 29
21 -5 4 -11 3 -15 -2 -10 -14 -32 -17 -32 -5 0 6 7 10 15 10 8 0 15 5 15 11 0
5 -5 7 -12 3 -7 -4 -8 -3 -4 4 7 11 36 6 36 -7z m200 -7 c0 -2 -9 0 -20 6 -11
6 -20 13 -20 16 0 2 9 0 20 -6 11 -6 20 -13 20 -16z m-39 0 c12 -15 11 -16
-10 -9 -16 5 -21 4 -17 -4 8 -13 4 -14 -18 -5 -23 9 -20 22 7 27 12 2 23 5 23
6 1 0 8 -6 15 -15z m14 -51 c-11 -3 -23 -10 -26 -15 -4 -6 -13 -7 -20 -3 -15
10 13 24 46 23 l20 0 -20 -5z m72 1 c-3 -3 -12 -4 -19 -1 -8 3 -5 6 6 6 11 1
17 -2 13 -5z m-340 -32 c18 -3 4 -32 -16 -32 -14 0 -14 2 -1 10 13 9 13 10 0
11 -8 1 -20 1 -27 0 -6 -1 -14 2 -17 7 -4 7 23 8 61 4z m-79 -27 c0 -15 -6
-25 -15 -25 -9 0 -13 6 -10 14 6 16 -8 14 -51 -7 -16 -8 -25 -8 -34 1 -9 9 -6
12 13 13 18 0 88 20 95 28 1 0 2 -10 2 -24z m642 9 c0 -8 -19 -13 -24 -6 -3 5
1 9 9 9 8 0 15 -2 15 -3z m380 -58 c0 -2 -9 -6 -20 -9 -11 -3 -18 -1 -14 4 5
9 34 13 34 5z m-3379 -39 c-10 -9 -11 -8 -5 6 3 10 9 15 12 12 3 -3 0 -11 -7
-18z m1561 -69 c-7 -7 -12 -8 -12 -2 0 14 12 26 19 19 2 -3 -1 -11 -7 -17z"/>
<path d="M1980 3724 c-54 -54 -121 -98 -198 -130 -31 -13 -48 -24 -37 -24 12
0 56 18 98 40 43 23 83 38 89 34 7 -5 8 -3 3 6 -4 7 -3 15 2 19 13 9 96 101
91 101 -2 0 -24 -20 -48 -46z"/>
<path d="M1970 3145 c0 -5 5 -17 10 -25 5 -8 10 -10 10 -5 0 6 -5 17 -10 25
-5 8 -10 11 -10 5z"/>
<path d="M1830 3111 c0 -6 4 -13 10 -16 6 -3 7 1 4 9 -7 18 -14 21 -14 7z"/>
<path d="M2931 1651 c-11 -7 -13 -30 -7 -117 4 -60 8 -110 10 -112 2 -2 19 3
38 11 88 37 115 156 46 201 -32 20 -70 28 -87 17z"/>
<path d="M2937 1333 c-4 -3 -7 -53 -7 -110 l0 -103 38 0 c67 0 112 52 112 130
0 58 -34 90 -93 90 -24 0 -47 -3 -50 -7z"/>
<path d="M3295 1540 c-25 -27 -38 -110 -17 -110 27 0 93 44 98 66 14 54 -44
85 -81 44z"/>
<path d="M2661 1391 c-11 -11 -23 -37 -26 -58 -3 -21 -8 -46 -10 -55 -5 -29
10 -29 58 2 51 32 67 66 48 106 -13 29 -44 31 -70 5z"/>
<path d="M1417 1068 c-26 -21 -37 -64 -37 -152 0 -134 31 -187 84 -145 33 26
46 75 46 175 0 67 -4 86 -21 108 -22 28 -46 33 -72 14z"/>
<path d="M3620 1112 c-14 -10 -26 -24 -28 -32 -2 -11 2 -10 12 4 8 10 19 16
23 13 5 -3 14 3 21 14 15 23 6 23 -28 1z"/>
<path d="M3255 1010 c3 -5 8 -10 11 -10 2 0 4 5 4 10 0 6 -5 10 -11 10 -5 0
-7 -4 -4 -10z"/>
<path d="M3160 969 c0 -5 5 -7 10 -4 6 3 10 8 10 11 0 2 -4 4 -10 4 -5 0 -10
-5 -10 -11z"/>
<path d="M3421 4287 c-31 -50 -106 -116 -158 -139 -25 -11 -82 -26 -127 -33
-68 -11 -83 -11 -96 1 -25 21 -87 44 -122 44 -115 0 -213 -136 -180 -249 14
-46 86 -116 133 -129 49 -13 128 14 175 59 34 33 64 106 64 155 0 18 10 24 66
38 141 36 211 97 256 223 23 66 18 77 -11 30z m-460 -237 c15 -13 18 -18 7
-14 -10 3 -20 -2 -27 -14 -11 -20 -59 -42 -92 -42 -25 0 -24 31 2 64 25 32 76
35 110 6z"/>
<path d="M3297 3926 c-60 -22 -87 -47 -117 -111 -41 -84 -19 -178 59 -248 84
-76 186 -71 268 15 60 62 78 159 44 233 -47 101 -152 147 -254 111z m139 -107
c23 -22 34 -46 15 -35 -19 12 -181 -38 -181 -55 0 -5 -5 -9 -11 -9 -24 0 -1
74 32 104 28 24 38 28 76 23 27 -3 54 -14 69 -28z"/>
<path d="M921 3595 c-1 -32 43 -130 78 -174 67 -85 226 -181 346 -210 l50 -13
27 33 c30 36 28 49 -7 49 -30 0 -130 37 -210 78 -118 60 -211 142 -272 238
-11 18 -12 18 -12 -1z"/>
<path d="M3673 3329 c-65 -19 -123 -105 -123 -180 1 -69 79 -162 146 -175 111
-21 231 98 210 209 -8 44 -57 112 -95 131 -39 21 -99 27 -138 15z m97 -94 c35
-18 50 -43 50 -85 0 -43 -47 -90 -90 -90 -47 0 -90 47 -90 98 0 33 6 45 31 66
35 30 58 32 99 11z"/>
<path d="M1005 3190 c-28 -11 -72 -60 -84 -93 -17 -43 -13 -80 12 -127 38 -72
131 -102 197 -64 42 25 80 91 80 139 0 97 -118 181 -205 145z m105 -95 c26
-27 30 -79 8 -101 -44 -45 -128 -12 -128 50 0 73 71 103 120 51z"/>
<path d="M3747 2876 c-54 -20 -107 -63 -123 -102 -18 -43 -18 -137 0 -172 46
-88 156 -133 239 -99 36 16 103 85 117 123 37 95 -34 225 -137 253 -47 13 -49
13 -96 -3z m94 -86 c10 -6 26 -24 34 -40 l15 -29 -30 9 c-22 6 -46 4 -88 -10
-31 -11 -60 -20 -64 -20 -19 0 -5 44 21 71 31 31 75 38 112 19z"/>
<path d="M1281 2530 c-2 -61 22 -202 50 -284 40 -119 95 -222 176 -331 122
-161 223 -250 374 -326 35 -18 67 -37 70 -42 4 -5 15 -6 26 -3 14 5 20 15 19
36 -1 25 -8 32 -51 51 -121 55 -302 198 -392 311 -145 182 -227 353 -258 536
-7 42 -13 66 -14 52z"/>
<path d="M3584 2345 c-93 -55 -99 -192 -12 -259 28 -21 46 -26 89 -26 30 0 65
6 79 13 29 14 70 89 70 127 0 47 -47 124 -89 148 -50 28 -86 28 -137 -3z m108
-72 c22 -20 24 -48 2 -39 -8 3 -28 -1 -44 -9 -40 -21 -60 -19 -60 5 0 26 34
60 62 60 12 0 30 -7 40 -17z"/>
<path d="M1065 2215 c-48 -26 -71 -53 -84 -96 -22 -74 10 -157 76 -196 108
-63 243 14 243 139 0 60 -19 98 -66 134 -45 34 -124 43 -169 19z m105 -55 c11
-7 4 -9 -22 -7 -21 2 -38 -1 -38 -6 0 -6 -3 -7 -7 -4 -3 4 -14 1 -23 -5 -9 -7
-5 -3 8 10 24 23 57 28 82 12z"/>
<path d="M3380 2077 c-28 -50 -71 -108 -119 -159 l-35 -38 29 0 c26 1 37 11
77 73 42 65 84 155 75 163 -2 2 -14 -15 -27 -39z"/>
<path d="M4190 950 c0 -5 5 -10 11 -10 5 0 7 5 4 10 -3 6 -8 10 -11 10 -2 0
-4 -4 -4 -10z"/>
<path d="M4160 930 c-9 -6 -10 -10 -3 -10 6 0 15 5 18 10 8 12 4 12 -15 0z"/>
</g>
</svg>
